# xmcd
#
# Track frame offsets: 
#        150
#        16617
#        31024
#        47757
#        70008
#
# Disc length: 1186 seconds
#
# Revision: 0
# Processed by: cddbd v1.5.2PL0 Copyright (c) Steve Scherf et al.
# Submitted via: ExactAudioCopyFreeDBPlugin 1.0
#
DISCID=2d04a005
DTITLE=The Faraways - Faraway and Kris
DYEAR=1900
DGENRE=Country
TTITLE0=Faraway
TTITLE1=I am who you really need
TTITLE2=Untitled #8
TTITLE3=Kris Kristofferson
TTITLE4=Quarters per hour
EXTD=
EXTT0=
EXTT1=
EXTT2=
EXTT3=
EXTT4=
PLAYORDER=
